<?xml version="1.0" encoding="iso-8859-1"?>
<!-- Generator: Adobe Illustrator 19.0.0, SVG Export Plug-In . SVG Version: 6.00 Build 0)  -->
<svg version="1.1" id="Capa_1" xmlns="http://www.w3.org/2000/svg" xmlns:xlink="http://www.w3.org/1999/xlink" x="0px" y="0px"
	 viewBox="0 0 512.001 512.001" style="enable-background:new 0 0 512.001 512.001;" xml:space="preserve">
<g>
	<g>
		<path d="M115.332,319.009c-20.143,0-36.531,16.388-36.531,36.531s16.388,36.53,36.531,36.53s36.531-16.388,36.531-36.53
			C151.863,335.397,135.476,319.009,115.332,319.009z M115.332,377.07c-11.872,0-21.531-9.658-21.531-21.53
			s9.659-21.531,21.531-21.531c11.872,0,21.531,9.659,21.531,21.531S127.205,377.07,115.332,377.07z"/>
	</g>
</g>
<g>
	<g>
		<path d="M115.332,343.196c-4.142,0-7.5,3.357-7.5,7.5v9.678c0,4.143,3.358,7.5,7.5,7.5c4.142,0,7.5-3.357,7.5-7.5v-9.678
			C122.832,346.554,119.475,343.196,115.332,343.196z"/>
	</g>
</g>
<g>
	<g>
		<path d="M404.962,207.028c-25.468,0-50.145,9.098-69.485,25.617c-17.492,14.941-29.679,35.117-34.803,57.331h-3.653v-25.682
			c0-1.989-0.79-3.896-2.197-5.304c-1.407-1.406-3.314-2.196-5.303-2.196h-9.087V148.166c0-31.577-25.69-57.267-57.267-57.267
			h-82.948c-4.142,0-7.5,3.357-7.5,7.5l-0.001,83.744h-31.323c-4.142,0-7.5,3.357-7.5,7.5s3.358,7.5,7.5,7.5h31.323v9.884H48.181
			v-9.884h23.027c4.142,0,7.5-3.357,7.5-7.5s-3.358-7.5-7.5-7.5H40.681c-4.142,0-7.5,3.357-7.5,7.5v17.384H24.09
			C10.807,207.027,0,217.834,0,231.118v116.125c0,0.51,0.054,1.015,0.155,1.507c0.004,0.02,0.011,0.039,0.015,0.059
			c0.047,0.22,0.101,0.437,0.167,0.651c0.018,0.059,0.042,0.115,0.062,0.173c0.058,0.174,0.118,0.347,0.189,0.516
			c0.024,0.056,0.053,0.11,0.078,0.165c0.075,0.168,0.152,0.335,0.239,0.497c0.017,0.031,0.037,0.059,0.054,0.09
			c0.334,0.597,0.746,1.154,1.238,1.646l33.181,33.179c1.407,1.406,3.314,2.196,5.303,2.196h16.59c0.354,0,0.7-0.033,1.042-0.081
			c11.285,19.841,32.608,33.261,57.019,33.261c24.378,0,45.675-13.383,56.972-33.179h84.04c3.228,0,6.094-2.066,7.115-5.128
			l11.104-33.314c0.001-0.004,0.002-0.007,0.004-0.011l3.772-11.318h22.336c5.123,22.214,17.311,42.391,34.803,57.332
			c19.34,16.52,44.017,25.617,69.485,25.617c59.021,0,107.038-48.017,107.038-107.037C512,255.045,463.983,207.028,404.962,207.028z
			 M147.719,105.899h75.448c23.306,0,42.267,18.961,42.267,42.267v108.629h-18.179V148.167c0-13.282-10.806-24.089-24.088-24.089
			h-75.448V105.899z M147.719,189.659c0-0.005,0.001-0.01,0.001-0.015s-0.001-0.01-0.001-0.015v-50.551h75.449
			c5.011,0,9.088,4.077,9.088,9.089v108.628h-54.844l-29.693-44.539V189.659z M15,231.118c0-5.012,4.078-9.091,9.09-9.091h112.114
			l30.953,46.429c1.391,2.087,3.732,3.34,6.24,3.34l99.519-0.001c0.006,0,0.012,0.001,0.018,0.001c0.006,0,0.012-0.001,0.018-0.001
			h9.07v18.182h-58.857c-4.142,0-7.5,3.357-7.5,7.5v9.089h-38.254l-30.951-46.43c-1.391-2.087-3.733-3.34-6.241-3.34H81.36v-9.09
			c0-4.143-3.358-7.5-7.5-7.5H15V231.118z M15,255.206h51.36v18.18H15V255.206z M49.77,355.54c0,6.018,0.831,11.842,2.357,17.382
			h-8.339l-18.181-18.18h6.779c4.142,0,7.5-3.357,7.5-7.5s-3.358-7.5-7.5-7.5H15v-18.177h17.386c4.142,0,7.5-3.358,7.5-7.5
			c0-4.143-3.358-7.5-7.5-7.5H15v-18.18h58.86c4.142,0,7.5-3.357,7.5-7.5v-9.09h54.845l24.01,36.017
			c-11.74-11.047-27.529-17.836-44.882-17.836C79.181,289.976,49.77,319.388,49.77,355.54z M115.332,406.103
			c-27.881,0-50.563-22.683-50.563-50.563c0-27.881,22.683-50.564,50.563-50.564c27.881,0,50.563,22.683,50.563,50.564
			C165.896,383.42,143.213,406.103,115.332,406.103z M171.16,321.21c0.716,0.224,1.466,0.356,2.237,0.356h42.268v18.179H178.96
			v-0.001C177.313,333.112,174.657,326.876,171.16,321.21z M250.938,372.924h-72.4c1.526-5.54,2.357-11.365,2.357-17.384
			c0-0.267-0.017-0.53-0.02-0.796h76.122L250.938,372.924z M272.934,323.153c-3.229,0-6.094,2.065-7.115,5.128l-3.821,11.463
			h-31.333v-34.768h107.939c0.02,0,0.038-0.003,0.058-0.003h75.39v18.18H272.934z M421.552,289.974h-70.32
			c9.339-20.876,30.221-34.767,53.731-34.767c32.454,0,58.858,26.403,58.858,58.858c0,32.455-26.404,58.858-58.858,58.858
			c-23.512,0-44.396-13.892-53.733-34.771h70.322c4.142,0,7.5-3.357,7.5-7.5v-33.18
			C429.052,293.331,425.694,289.974,421.552,289.974z M404.962,406.103c-42.119,0-78.163-28.088-88.854-67.949h19.019
			c10.169,29.578,38.09,49.771,69.835,49.771c40.725,0,73.858-33.133,73.858-73.858c0-40.726-33.133-73.858-73.858-73.858
			c-31.744,0-59.665,20.191-69.835,49.769h-19.019c10.691-39.861,46.735-67.948,88.853-67.948c50.75,0,92.038,41.288,92.038,92.037
			C497,364.815,455.712,406.103,404.962,406.103z"/>
	</g>
</g>
<g>
</g>
<g>
</g>
<g>
</g>
<g>
</g>
<g>
</g>
<g>
</g>
<g>
</g>
<g>
</g>
<g>
</g>
<g>
</g>
<g>
</g>
<g>
</g>
<g>
</g>
<g>
</g>
<g>
</g>
</svg>
