<?xml version="1.0" standalone="no"?>
<!DOCTYPE svg PUBLIC "-//W3C//DTD SVG 20010904//EN"
 "http://www.w3.org/TR/2001/REC-SVG-20010904/DTD/svg10.dtd">
<svg version="1.0" xmlns="http://www.w3.org/2000/svg"
 width="260.000000pt" height="260.000000pt" viewBox="0 0 260.000000 260.000000"
 preserveAspectRatio="xMidYMid meet">
<metadata>
Created by potrace 1.11, written by Peter Selinger 2001-2013
</metadata>
<g transform="translate(0.000000,260.000000) scale(0.100000,-0.100000)"
fill="#000000" stroke="none">
<path d="M630 2175 c-278 -65 -453 -287 -520 -660 -24 -128 -21 -362 4 -480
65 -298 221 -507 443 -592 53 -20 90 -26 168 -29 124 -4 205 19 283 78 49 38
142 149 142 169 0 5 4 9 8 9 7 0 16 -43 36 -185 3 -19 11 -20 161 -20 l158 0
47 165 46 165 261 3 c243 2 262 1 267 -15 3 -10 17 -63 31 -118 14 -55 33
-124 41 -153 l15 -52 144 0 c91 0 145 4 145 10 0 6 -41 153 -90 328 -50 174
-157 551 -238 837 l-147 520 -158 3 c-155 2 -157 2 -167 -20 -5 -13 -41 -133
-80 -268 -39 -135 -79 -274 -90 -310 -10 -36 -44 -153 -75 -260 -32 -107 -65
-222 -75 -255 l-19 -60 -3 193 -3 194 -230 -1 c-126 0 -251 0 -277 -1 l-48 0
0 -145 0 -145 160 0 c94 0 160 -4 160 -10 0 -35 -27 -124 -53 -173 -57 -109
-158 -174 -282 -184 -89 -7 -159 18 -231 81 -125 109 -186 279 -184 511 0 86
2 103 15 198 16 105 83 245 148 304 12 12 47 34 77 49 47 25 68 29 142 31 107
2 168 -19 233 -82 39 -39 95 -134 95 -164 0 -20 42 -27 160 -26 l115 1 -2 36
c0 19 -8 64 -17 99 -49 194 -195 350 -386 410 -80 26 -250 33 -330 14z m1263
-500 c9 -33 39 -145 67 -250 28 -104 58 -215 66 -245 8 -30 17 -62 20 -72 4
-15 -10 -17 -176 -17 -99 0 -180 4 -180 7 0 4 27 104 59 222 32 118 71 263 87
322 15 59 31 104 35 100 4 -4 14 -34 22 -67z"/>
</g>
</svg>
